#!OML:ASF F:\VICON\USERDATA\INSTALL\rory3\rory3.ASF
:FULLY-SPECIFIED
:DEGREES
126
root -0.204935 18.2084 5.78619 -3.84555 -0.624023 -5.3703
lowerback 9.74698 0.0319568 3.43949
upperback 0.538574 0.551392 2.52742
thorax -4.90363 0.222996 0.623475
lowerneck -16.5085 -3.24191 -1.53245
upperneck 22.7033 -4.1936 0.232708
head 9.98684 -2.04507 -0.223057
rclavicle 3.98191e-015 2.78299e-014
rhumerus -32.0165 -27.7693 -74.0215
rradius 18.518
rwrist 14.1458
rhand -17.7412 25.2839
rfingers 7.12502
rthumb 8.52007 -4.52417
lclavicle 3.98191e-015 2.78299e-014
lhumerus -29.737 3.78109 82.6198
lradius 26.5605
lwrist 4.92447
lhand -27.2885 23.0973
lfingers 7.12502
lthumb -0.698733 53.0759
rfemur -9.15199 4.82775 31.782
rtibia 27.5943
rfoot -12.2147 -3.84719
rtoes 8.40306
lfemur -14.3957 2.2108 -14.0388
ltibia 68.738
lfoot -0.00238127 -7.27948
ltoes -5.62091
127
root -0.209227 18.2214 5.96959 -3.81543 -0.851796 -5.19152
lowerback 9.72797 0.181767 3.35929
upperback 0.4696 0.736096 2.38277
thorax -4.96146 0.313218 0.492241
lowerneck -16.2996 -3.21401 -1.54459
upperneck 22.7244 -4.17793 0.324225
head 9.95732 -2.02912 -0.183375
rclavicle 1.56574e-014 -4.57205e-015
rhumerus -31.5801 -26.6968 -74.7041
rradius 18.7384
rwrist 12.9086
rhand -17.658 25.3971
rfingers 7.12502
rthumb 8.60039 -4.40774
lclavicle 1.56574e-014 -4.57205e-015
lhumerus -30.3132 3.89884 82.5651
lradius 26.3708
lwrist 5.19317
lhand -27.0569 24.414
lfingers 7.12502
lthumb -0.475038 54.3932
rfemur -8.4508 4.56993 31.6371
rtibia 27.487
rfoot -12.6767 -3.57349
rtoes 8.81072
lfemur -15.3389 2.34566 -14.3549
ltibia 68.522
lfoot -1.36608 -6.09665
ltoes -5.83576
128
root -0.218321 18.2184 6.13412 -3.79815 -1.20267 -5.38571
lowerback 9.98848 0.350428 3.55578
upperback 0.399869 0.998663 2.37259
thorax -5.17348 0.434747 0.333378
lowerneck -16.2717 -3.26017 -1.62936
upperneck 22.7366 -4.24153 0.409699
head 9.9613 -2.05576 -0.147616
rclavicle -5.12802e-015 1.59028e-014
rhumerus -30.9883 -25.476 -75.4898
rradius 18.9407
rwrist 11.6649
rhand -17.8629 25.3065
rfingers 7.12502
rthumb 8.40261 -4.50638
lclavicle -5.12802e-015 1.59028e-014
lhumerus -30.7453 4.03174 82.528
lradius 26.1795
lwrist 5.38858
lhand -26.7596 23.4118
lfingers 7.12502
lthumb -0.187925 53.3915
rfemur -7.82114 4.70702 31.9473
rtibia 27.4566
rfoot -12.9072 -3.57134
rtoes 9.67272
lfemur -16.4908 2.66084 -14.1529
ltibia 68.2017
lfoot -2.15656 -5.36712
ltoes -7.23867
129
root -0.22642 18.2027 6.30245 -3.81865 -1.42572 -5.47133
lowerback 10.1563 0.50042 3.68743
upperback 0.350622 1.22254 2.33513
thorax -5.31171 0.538995 0.186841
lowerneck -16.0934 -3.35037 -1.82147
upperneck 22.5976 -4.36048 0.584501
head 9.88876 -2.10848 -0.0660239
rclavicle -4.9075e-015 -1.88845e-014
rhumerus -30.5254 -24.4529 -76.1475
rradius 19.3999
rwrist 10.5132
rhand -17.6445 24.9593
rfingers 7.12502
rthumb 8.61338 -4.84496
lclavicle -4.9075e-015 -1.88845e-014
lhumerus -30.9603 4.08115 82.5552
lradius 25.5699
lwrist 5.66587
lhand -27.0592 21.5779
lfingers 7.12502
lthumb -0.477291 51.5571
rfemur -7.15316 4.77273 32.1306
rtibia 27.4636
rfoot -13.1812 -3.72038
rtoes 10.1312
lfemur -17.556 2.87825 -14.0985
ltibia 67.7223
lfoot -2.9256 -4.78672
ltoes -8.04587
130
root -0.23278 18.1899 6.47359 -3.76796 -1.2763 -5.51357
lowerback 10.0442 0.523142 3.80512
upperback 0.396548 1.2536 2.25476
thorax -5.19538 0.552578 0.0336778
lowerneck -16.1468 -3.3402 -1.62199
upperneck 22.4352 -4.35889 0.439587
head 9.83214 -2.10785 -0.148484
rclavicle 2.48481e-016 -1.39149e-015
rhumerus -29.7971 -23.6746 -76.8284
rradius 19.7759
rwrist 9.59543
rhand -17.3305 24.6659
rfingers 7.12502
rthumb 8.91639 -5.12568
lclavicle 2.48481e-016 -1.39149e-015
lhumerus -31.0573 4.38069 82.4459
lradius 24.9888
lwrist 5.54363
lhand -27.2935 20.5793
lfingers 7.12502
lthumb -0.703557 50.5579
rfemur -6.61079 4.5649 32.2377
rtibia 27.5407
rfoot -13.6422 -3.84669
rtoes 10.388
lfemur -18.6673 2.65419 -14.1624
ltibia 67.1226
lfoot -4.02869 -4.19646
ltoes -8.99343
131
root -0.240415 18.1759 6.63964 -3.72057 -1.29645 -5.82853
lowerback 10.0748 0.557884 4.1791
upperback 0.448861 1.34185 2.25242
thorax -5.14712 0.588257 -0.191072
lowerneck -16.4686 -3.31499 -1.54635
upperneck 22.5144 -4.35101 0.484681
head 9.92001 -2.0897 -0.151024
rclavicle -1.78254e-014 -1.85864e-014
rhumerus -29.0257 -22.7441 -77.5827
rradius 20.2716
rwrist 8.72723
rhand -17.3945 23.0873
rfingers 7.12502
rthumb 8.85463 -6.70692
lclavicle -1.78254e-014 -1.85864e-014
lhumerus -31.4196 4.31802 82.4629
lradius 24.9237
lwrist 5.90819
lhand -27.3506 20.5755
lfingers 7.12502
lthumb -0.758712 50.5539
rfemur -6.16647 4.4333 32.6633
rtibia 27.7569
rfoot -14.2675 -3.88119
rtoes 10.9977
lfemur -19.8923 2.59721 -13.8645
ltibia 66.4816
lfoot -5.00256 -3.68521
ltoes -10.2152
132
root -0.246078 18.1592 6.81718 -3.67906 -1.59749 -6.01837
lowerback 10.0607 0.684579 4.35331
upperback 0.393331 1.53337 2.28177
thorax -5.18784 0.677429 -0.285073
lowerneck -16.2027 -3.33219 -1.6376
upperneck 22.3424 -4.37843 0.592695
head 9.81421 -2.10026 -0.0952991
rclavicle -1.4182e-014 -3.67752e-015
rhumerus -28.7135 -21.2618 -78.2575
rradius 21.2266
rwrist 7.82862
rhand -17.4119 19.6347
rfingers 7.12502
rthumb 8.83792 -10.1602
lclavicle -1.4182e-014 -3.67752e-015
lhumerus -32.0614 4.3933 82.4708
lradius 24.8647
lwrist 6.24181
lhand -27.1025 21.5674
lfingers 7.12502
lthumb -0.519065 51.5465
rfemur -5.65397 4.34579 32.937
rtibia 27.9627
rfoot -14.9811 -3.69079
rtoes 8.9989
lfemur -20.781 2.81236 -13.6822
ltibia 65.6946
lfoot -5.85257 -2.7633
ltoes -9.89821
133
root -0.248466 18.1394 6.98226 -3.60709 -1.78515 -6.14074
lowerback 10.0415 0.821493 4.55438
upperback 0.427996 1.7328 2.23564
thorax -5.12629 0.771804 -0.473298
lowerneck -16.0983 -3.37416 -1.55585
upperneck 22.0905 -4.44389 0.546372
head 9.70278 -2.13102 -0.128897
rclavicle 9.50905e-015 4.91992e-015
rhumerus -28.2708 -20.0544 -78.9067
rradius 22.1665
rwrist 6.8232
rhand -17.412 17.3126
rfingers 7.12502
rthumb 8.83774 -12.4824
lclavicle 9.50905e-015 4.91992e-015
lhumerus -32.2796 4.59815 82.4141
lradius 24.5775
lwrist 6.12827
lhand -26.7266 21.6769
lfingers 7.12502
lthumb -0.156039 51.6566
rfemur -5.27795 3.97661 33.0794
rtibia 28.1558
rfoot -15.525 -3.35505
rtoes 8.04964
lfemur -21.338 3.0997 -13.6107
ltibia 64.8508
lfoot -6.51595 -1.69472
ltoes -11.7211
134
root -0.248105 18.1327 7.14623 -3.53639 -1.89371 -6.24243
lowerback 10.0924 0.901578 4.75837
upperback 0.497851 1.86144 2.21895
thorax -5.06946 0.832064 -0.623253
lowerneck -16.2114 -3.38663 -1.5405
upperneck 21.857 -4.42556 0.413713
head 9.63745 -2.13691 -0.174475
rclavicle 9.56807e-015 -2.01766e-014
rhumerus -27.5774 -19.2268 -79.3954
rradius 22.6771
rwrist 6.13531
rhand -17.6411 16.5017
rfingers 7.12502
rthumb 8.61672 -13.3025
lclavicle 9.56807e-015 -2.01766e-014
lhumerus -32.3654 5.36811 82.2759
lradius 24.2511
lwrist 5.51838
lhand -26.8149 21.1704
lfingers 7.12502
lthumb -0.24131 51.15
rfemur -4.90004 3.64947 33.1659
rtibia 28.3212
rfoot -16.0392 -2.97771
rtoes 9.06623
lfemur -22.1692 3.05975 -13.5945
ltibia 63.6506
lfoot -6.62688 -0.966597
ltoes -10.5416
